{"title":"Paranormal.State.The.New.Class.S01E02.HDTV.XviD-tNe.avi","uid":6362927,"size":183486464,"categoryP":"video","categoryS":"tv_shows","magnet":"?xt=urn:btih:1c92b77c82d6f1c9784728e77017b84e1fa4e603&amp;dn=Paranormal.State.The.New.Class.S01E02.HDTV.XviD-tNe.avi&amp;tr=udp%3A%2F%2Ftracker.openbittorrent.com%3A80&amp;tr=udp%3A%2F%2Fopen.demonii.com%3A1337&amp;tr=udp%3A%2F%2Ftracker.coppersurfer.tk%3A6969&amp;tr=udp%3A%2F%2Fexodus.desync.com%3A6969","seeders":1,"leechers":0,"uploader":"trialNerror","files":1,"time":1304406591,"description":"Format                           : AVI\nFormat/Info                      : Audio Video Interleave\nFile size                        : 175 MiB\nDuration                         : 21mn 28s\nOverall bit rate                 : 1 139 Kbps\nWriting application              : VirtualDubMod 1.5.10.2 (build 2542/release)\nWriting library                  : VirtualDubMod build 2542/release\n\nVideo\nID                               : 0\nFormat                           : MPEG-4 Visual\nFormat profile                   : Advanced Simple@L5\nFormat settings, BVOP            : Yes\nFormat settings, QPel            : No\nFormat settings, GMC             : No warppoints\nFormat settings, Matrix          : Default (H.263)\nCodec ID                         : XVID\nCodec ID/Hint                    : XviD\nDuration                         : 21mn 28s\nBit rate                         : 1 004 Kbps\nWidth                            : 624 pixels\nHeight                           : 352 pixels\nDisplay aspect ratio             : 16:9\nFrame rate                       : 29.970 fps\nColor space                      : YUV\nChroma subsampling               : 4:2:0\nBit depth                        : 8 bits\nScan type                        : Progressive\nBits/(Pixel*Frame)               : 0.153\nStream size                      : 154 MiB (88%)\nWriting library                  : XviD 58\n\nAudio\nID                               : 1\nFormat                           : MPEG Audio\nFormat version                   : Version 1\nFormat profile                   : Layer 3\nMode                             : Joint stereo\nMode extension                   : MS Stereo\nCodec ID                         : 55\nCodec ID/Hint                    : MP3\nDuration                         : 21mn 28s\nBit rate mode                    : Variable\nBit rate                         : 121 Kbps\nChannel(s)                       : 2 channels\nSampling rate                    : 48.0 KHz\nStream size                      : 18.6 MiB (11%)\nAlignment                        : Aligned on interleaves\nInterleave, duration             : 24 ms (0.72 video frame)\nInterleave, preload duration     : 522 ms\n","torrent":{"xt":"urn:btih:1c92b77c82d6f1c9784728e77017b84e1fa4e603","amp;dn":"Paranormal.State.The.New.Class.S01E02.HDTV.XviD-tNe.avi","amp;tr":["udp%3A%2F%2Ftracker.openbittorrent.com%3A80","udp%3A%2F%2Fopen.demonii.com%3A1337","udp%3A%2F%2Ftracker.coppersurfer.tk%3A6969","udp%3A%2F%2Fexodus.desync.com%3A6969"],"infoHash":"1c92b77c82d6f1c9784728e77017b84e1fa4e603","infoHashBuffer":{"type":"Buffer","data":[28,146,183,124,130,214,241,201,120,71,40,231,112,23,184,78,31,164,230,3]},"announce":[],"urlList":[]}}